<svg width="82" height="32" viewBox="0 0 82 32" fill="none" xmlns="http://www.w3.org/2000/svg">
<path d="M36.1348 31.9811C24.2734 31.9811 12.413 31.9811 0.551509 31.9811C-0.0481251 31.9811 -0.0491345 31.9791 0.0467665 31.4158C0.618135 28.0665 1.19758 24.7191 1.75784 21.3677C2.31205 18.0515 2.84304 14.7313 3.3922 11.4141C3.74653 9.27875 3.96761 7.10718 4.51576 5.02111C5.16183 2.56088 6.86079 0.937484 9.37138 0.305829C10.1234 0.116735 10.932 0.0936012 11.7154 0.0925954C30.407 0.0734848 49.0986 0.0704667 67.7903 0.0573911C72.3663 0.0543736 76.9423 0.0332537 81.5183 6.16681e-05C81.9968 -0.00295579 82.0492 0.103659 81.9695 0.563318C81.6525 2.38385 81.3991 4.21646 81.1145 6.04303C80.7965 8.08484 80.4684 10.1246 80.1494 12.1665C79.8617 14.0101 79.5831 15.8548 79.2974 17.6985C78.9865 19.7071 78.6766 21.7167 78.3566 23.7243C78.1809 24.8257 78.0436 25.9381 77.7872 27.0224C77.1058 29.9021 74.6255 31.9409 71.6647 31.96C64.6498 32.0063 57.6338 31.9922 50.6179 31.9982C45.7896 32.0022 40.9612 31.9982 36.1318 31.9982V31.9821L36.1348 31.9811ZM61.3659 20.2543C61.0035 18.6128 60.6613 17.0718 60.3231 15.5299C59.4711 11.6465 58.6201 7.76298 57.7762 3.8775C57.7055 3.55362 57.5844 3.42991 57.2189 3.43695C55.4695 3.47114 53.7201 3.46712 51.9706 3.47215C50.7916 3.47517 50.8158 3.47517 50.63 4.64494C50.2333 7.14339 49.8154 9.63883 49.3914 12.1333C48.9402 14.7916 48.4677 17.446 48.0124 20.1034C47.5562 22.7618 47.117 25.4222 46.6476 28.0775C46.5941 28.3773 46.6244 28.4547 46.9323 28.4527C48.4465 28.4416 49.9597 28.4447 51.474 28.4507C51.7062 28.4507 51.8111 28.4145 51.8556 28.1349C52.119 26.4743 52.4158 24.8197 52.7045 23.1631C53.0558 21.1474 53.4122 19.1338 53.7604 17.1181C54.0421 15.4907 54.3157 13.8623 54.5933 12.2338C55.0072 13.6148 55.3443 14.9999 55.6775 16.3859C56.4588 19.6347 57.2381 22.8835 58.0185 26.1323C58.075 26.3676 58.185 26.4803 58.4657 26.4773C59.5761 26.4622 60.6865 26.4682 61.796 26.4954C62.121 26.5034 62.2967 26.4008 62.4673 26.1232C63.8836 23.8199 65.3847 21.5658 66.7172 19.2163C67.2714 18.2396 67.8831 18.0274 68.935 18.1028C71.0126 18.2527 73.1022 18.2336 75.1878 18.2688C75.3099 18.2708 75.5118 18.1541 75.5431 18.0515C75.6239 17.784 75.6229 17.4923 75.6683 17.2127C75.7127 16.9461 75.6087 16.8707 75.3463 16.8747C74.4377 16.8878 73.5292 16.8918 72.6217 16.8767C71.1993 16.8526 69.7769 16.8103 68.2869 16.7741C68.6312 16.2048 68.9583 15.7059 69.2409 15.1819C69.4125 14.8631 69.6174 14.7474 69.9889 14.7554C71.7545 14.7937 73.5211 14.7987 75.2867 14.8138C76.1276 14.8208 76.1236 14.8168 76.2598 14.0222C76.3134 13.7074 76.279 13.5464 75.8762 13.5525C74.1944 13.5756 72.5116 13.5615 70.8298 13.5615C70.6592 13.5615 70.4896 13.5615 70.2484 13.5615C70.6199 12.9651 70.9469 12.4803 71.2286 11.9713C71.3729 11.7098 71.5496 11.6424 71.8312 11.6454C73.295 11.6595 74.7577 11.6515 76.2215 11.6615C76.4678 11.6635 76.6233 11.6354 76.6707 11.3377C77.0937 8.70946 77.5308 6.08427 77.9729 3.40577C77.7781 3.40577 77.5974 3.40577 77.4167 3.40577C75.7006 3.40577 73.9845 3.41884 72.2694 3.39571C71.8706 3.39068 71.6334 3.50635 71.4244 3.85034C69.2439 7.42804 67.0483 10.9967 64.8567 14.5674C63.714 16.4291 62.5712 18.2909 61.3649 20.2553L61.3659 20.2543ZM40.4978 19.0362C43.3092 18.663 44.9638 17.1754 45.4857 14.499C45.9581 12.082 46.3872 9.65593 46.7627 7.22185C46.9283 6.14562 46.581 5.16897 45.6947 4.45082C44.8326 3.75177 43.7877 3.52647 42.7318 3.51943C38.072 3.48623 33.4113 3.50635 28.7515 3.49931C28.4577 3.49931 28.3588 3.58883 28.3103 3.88957C28.0196 5.69803 27.7036 7.50247 27.3887 9.30691C26.996 11.5529 26.5972 13.7979 26.2005 16.0439C25.8411 18.0767 25.4817 20.1094 25.1214 22.1432C24.7509 24.2333 24.3804 26.3224 24.0039 28.4487C25.7089 28.4487 27.3725 28.4527 29.0372 28.4386C29.1361 28.4386 29.3026 28.3109 29.3198 28.2193C29.4722 27.4187 29.5994 26.6131 29.7317 25.8074C30.0769 23.7052 30.4212 21.6031 30.7654 19.4999C30.8088 19.2364 30.9148 19.1086 31.2257 19.1187C32.3523 19.1539 33.4799 19.172 34.6065 19.1579C34.9921 19.1529 35.1577 19.2897 35.2788 19.6447C36.2257 22.4329 37.1968 25.2119 38.1447 27.9991C38.2588 28.333 38.4052 28.4638 38.7777 28.4577C40.3585 28.4336 41.9404 28.4487 43.5212 28.4467C43.6626 28.4467 43.8039 28.4286 43.9806 28.4165C42.8126 25.2703 41.6618 22.1693 40.4978 19.0352V19.0362ZM12.9127 28.4477C14.225 28.4477 15.5383 28.4869 16.8486 28.4396C19.5621 28.3421 21.3459 27.2487 22.1515 24.4244C22.5381 23.0685 22.7551 21.6644 23.0539 20.2834C23.1317 19.9254 22.8763 20.0018 22.6925 20.0028C21.2126 20.0068 19.7317 20.0209 18.2518 20.0169C17.956 20.0169 17.8601 20.1104 17.8127 20.4081C17.6774 21.2611 17.522 22.114 17.318 22.9539C17.1202 23.7706 16.7517 24.0221 15.9199 24.0231C14.4562 24.0251 12.9924 24.0241 11.5297 24.0231C10.6534 24.0231 10.3435 23.6821 10.4667 22.8161C10.5565 22.1895 10.6797 21.5679 10.7927 20.9453C11.251 18.4247 11.7124 15.9051 12.1697 13.3845C12.4331 11.9271 12.6694 10.4646 12.9561 9.01221C13.1075 8.24577 13.38 7.99733 14.1493 7.98124C15.7968 7.94503 17.4462 7.95308 19.0937 7.97219C19.6378 7.97822 19.8811 8.23571 19.8307 8.76377C19.7529 9.57446 19.6257 10.3821 19.4814 11.1848C19.3612 11.8536 19.337 11.8496 19.9861 11.8486C21.2136 11.8476 22.4422 11.8466 23.6697 11.8436C24.547 11.8416 24.5873 11.8466 24.7297 11.0017C24.9487 9.70723 25.2051 8.4057 25.2617 7.09914C25.3122 5.93339 24.7731 4.93763 23.7747 4.24261C22.7592 3.53552 21.5872 3.43494 20.4131 3.43192C18.0247 3.42689 15.6362 3.47919 13.2478 3.49931C10.5908 3.52144 8.59004 5.19512 8.05097 7.66843C7.45538 10.3972 7.01524 13.1592 6.51656 15.9091C6.04715 18.4971 5.58783 21.0871 5.12851 23.6761C4.95993 24.6276 4.94378 25.571 5.38896 26.4642C6.10368 27.8985 7.41601 28.3501 8.8737 28.4306C10.2153 28.505 11.564 28.4467 12.9096 28.4467L12.9127 28.4477ZM68.1173 28.4628C69.7537 28.4628 71.3487 28.4628 72.9427 28.4628C73.4023 28.4628 73.6688 28.2448 73.7422 27.809C73.7472 27.7758 73.7442 27.7416 73.7493 27.7094C74.1722 25.3367 74.5851 22.9619 75.0303 20.5932C75.1111 20.1657 74.996 20.0873 74.5952 20.0933C73.184 20.1134 71.7727 20.1004 70.3604 20.1004C69.8833 20.1004 69.6023 20.3317 69.5175 20.7944C69.5114 20.8276 69.5145 20.8618 69.5084 20.894C69.0491 23.3944 68.5888 25.8949 68.1163 28.4638L68.1173 28.4628Z" fill="#D2760D"/>
<path d="M61.3659 20.2542C62.5722 18.2899 63.715 16.4281 64.8577 14.5663C67.0493 10.9957 69.2449 7.42702 71.4254 3.84932C71.6344 3.50633 71.8716 3.38966 72.2703 3.39469C73.9855 3.41681 75.7016 3.40474 77.4177 3.40474C77.5984 3.40474 77.7791 3.40474 77.9739 3.40474C77.5318 6.08324 77.0947 8.70843 76.6717 11.3366C76.6243 11.6344 76.4688 11.6615 76.2225 11.6605C74.7587 11.6515 73.295 11.6595 71.8322 11.6444C71.5506 11.6414 71.3739 11.7088 71.2296 11.9703C70.9479 12.4793 70.6208 12.9641 70.2494 13.5605C70.4906 13.5605 70.6602 13.5605 70.8308 13.5605C72.5126 13.5605 74.1954 13.5746 75.8772 13.5515C76.279 13.5454 76.3143 13.7064 76.2608 14.0212C76.1246 14.8158 76.1286 14.8198 75.2877 14.8128C73.5211 14.7987 71.7555 14.7926 69.9899 14.7544C69.6184 14.7464 69.4135 14.862 69.2419 15.1809C68.9592 15.7049 68.6322 16.2038 68.2879 16.7731C69.7779 16.8093 71.2003 16.8526 72.6227 16.8757C73.5312 16.8908 74.4397 16.8878 75.3473 16.8737C75.6097 16.8697 75.7137 16.9451 75.6693 17.2116C75.6228 17.4913 75.6239 17.7829 75.5441 18.0505C75.5138 18.1521 75.3109 18.2698 75.1888 18.2677C73.1042 18.2325 71.0135 18.2517 68.936 18.1018C67.8841 18.0264 67.2714 18.2386 66.7182 19.2152C65.3857 21.5648 63.8846 23.8199 62.4682 26.1222C62.2976 26.3998 62.122 26.5024 61.7969 26.4944C60.6875 26.4672 59.5761 26.4622 58.4666 26.4762C58.186 26.4803 58.076 26.3676 58.0194 26.1312C57.2391 22.8824 56.4598 19.6336 55.6784 16.3849C55.3453 14.9988 55.0082 13.6128 54.5943 12.2328C54.3167 13.8612 54.0431 15.4897 53.7614 17.1171C53.4122 19.1328 53.0558 21.1474 52.7055 23.1621C52.4168 24.8187 52.12 26.4732 51.8565 28.1338C51.8121 28.4135 51.7071 28.4507 51.475 28.4497C49.9607 28.4436 48.4465 28.4406 46.9333 28.4517C46.6244 28.4537 46.5951 28.3762 46.6486 28.0765C47.118 25.4211 47.5571 22.7597 48.0134 20.1024C48.4697 17.445 48.9411 14.7906 49.3924 12.1322C49.8164 9.63781 50.2333 7.14237 50.631 4.64391C50.8168 3.47414 50.7925 3.47414 51.9716 3.47113C53.7211 3.4671 55.4705 3.47012 57.2199 3.43592C57.5864 3.42888 57.7075 3.5526 57.7772 3.87647C58.6211 7.76195 59.4731 11.6454 60.3241 15.5289C60.6623 17.0708 61.0045 18.6117 61.3669 20.2532L61.3659 20.2542Z" fill="white"/>
<path d="M40.4978 19.0363C41.6618 22.1704 42.8126 25.2713 43.9805 28.4175C43.8039 28.4296 43.6626 28.4477 43.5212 28.4477C41.9394 28.4497 40.3585 28.4346 38.7777 28.4588C38.4052 28.4648 38.2578 28.3341 38.1447 28.0001C37.1968 25.213 36.2257 22.4329 35.2788 19.6458C35.1587 19.2917 34.9931 19.1549 34.6065 19.159C33.4799 19.1731 32.3523 19.1549 31.2257 19.1197C30.9148 19.1097 30.8078 19.2374 30.7654 19.5009C30.4222 21.6031 30.0769 23.7063 29.7317 25.8084C29.5994 26.6131 29.4722 27.4188 29.3198 28.2204C29.3026 28.3109 29.1351 28.4387 29.0371 28.4397C27.3735 28.4527 25.7089 28.4497 24.0038 28.4497C24.3804 26.3234 24.7519 24.2333 25.1213 22.1442C25.4817 20.1115 25.8411 18.0787 26.2005 16.045C26.5972 13.799 26.997 11.554 27.3886 9.30797C27.7036 7.50353 28.0206 5.69909 28.3103 3.89062C28.3588 3.58988 28.4577 3.50037 28.7515 3.50037C33.4112 3.50741 38.072 3.48729 42.7318 3.52048C43.7887 3.52752 44.8325 3.75283 45.6946 4.45187C46.581 5.17103 46.9292 6.14668 46.7627 7.22291C46.3871 9.65599 45.9571 12.083 45.4857 14.5C44.9628 17.1765 43.3092 18.6641 40.4978 19.0373V19.0363ZM31.6578 14.7666C34.1138 14.7666 36.5184 14.7867 38.922 14.7565C39.8376 14.7444 40.2949 14.2506 40.4373 13.3272C40.515 12.8173 40.6149 12.3103 40.6947 11.8014C40.8481 10.8157 41.0298 9.83301 41.1308 8.84227C41.1944 8.21364 40.8703 7.93704 40.2222 7.93C39.6165 7.92396 39.0108 7.92899 38.4052 7.92899C36.689 7.92899 34.9729 7.92899 33.2578 7.92899C33.0428 7.92899 32.8197 7.88373 32.7662 8.2066C32.4058 10.3731 32.0353 12.5387 31.6578 14.7666Z" fill="white"/>
<path d="M12.9127 28.4477C11.567 28.4477 10.2183 28.506 8.87673 28.4316C7.41903 28.3511 6.1067 27.8995 5.39199 26.4652C4.9468 25.5721 4.96296 24.6286 5.13154 23.6771C5.59086 21.0871 6.05017 18.4981 6.51958 15.9102C7.01827 13.1602 7.45941 10.3983 8.054 7.66947C8.59306 5.19616 10.5939 3.52147 13.2508 3.50035C15.6393 3.48023 18.0277 3.42793 20.4162 3.43296C21.5902 3.43597 22.7622 3.53555 23.7777 4.24365C24.7761 4.93967 25.3152 5.93443 25.2647 7.10018C25.2082 8.40674 24.9518 9.70726 24.7327 11.0028C24.5894 11.8476 24.55 11.8416 23.6728 11.8446C22.4452 11.8476 21.2167 11.8476 19.9891 11.8497C19.34 11.8497 19.3643 11.8547 19.4844 11.1858C19.6288 10.3832 19.7559 9.5755 19.8337 8.76481C19.8842 8.23675 19.6409 7.97926 19.0968 7.97323C17.4483 7.95412 15.7998 7.94607 14.1523 7.98228C13.3831 7.99938 13.1095 8.24681 12.9591 9.01325C12.6724 10.4657 12.4362 11.9281 12.1727 13.3855C11.7164 15.9061 11.2541 18.4257 10.7958 20.9463C10.6827 21.5689 10.5585 22.1905 10.4697 22.8171C10.3455 23.6841 10.6565 24.0241 11.5327 24.0241C12.9964 24.0241 14.4602 24.0251 15.9229 24.0241C16.7537 24.0231 17.1222 23.7716 17.3211 22.9549C17.525 22.1161 17.6804 21.2631 17.8157 20.4092C17.8632 20.1115 17.9591 20.0169 18.2548 20.0179C19.7347 20.023 21.2157 20.0079 22.6956 20.0038C22.8793 20.0038 23.1347 19.9274 23.057 20.2845C22.7582 21.6655 22.5411 23.0696 22.1545 24.4254C21.3499 27.2498 19.5662 28.3441 16.8517 28.4407C15.5413 28.4879 14.228 28.4487 12.9157 28.4487L12.9127 28.4477Z" fill="white"/>
<path d="M68.1173 28.4628C68.5897 25.8939 69.0501 23.3935 69.5094 20.893C69.5154 20.8598 69.5124 20.8256 69.5185 20.7934C69.6033 20.3307 69.8842 20.0994 70.3614 20.0994C71.7727 20.0994 73.1849 20.1125 74.5962 20.0924C74.9969 20.0863 75.111 20.1648 75.0313 20.5922C74.5861 22.961 74.1732 25.3357 73.7502 27.7084C73.7442 27.7416 73.7482 27.7758 73.7432 27.808C73.6705 28.2445 73.404 28.4625 72.9437 28.4618C71.3487 28.4618 69.7547 28.4618 68.1183 28.4618L68.1173 28.4628Z" fill="white"/>
<path d="M31.6578 14.7665C32.0353 12.5386 32.4058 10.3741 32.7662 8.20654C32.8197 7.88367 33.0428 7.92893 33.2578 7.92893C34.9739 7.92893 36.6901 7.92893 38.4052 7.92893C39.0109 7.92893 39.6166 7.9239 40.2222 7.92993C40.8703 7.93698 41.1944 8.21357 41.1308 8.84221C41.0298 9.83294 40.8481 10.8156 40.6947 11.8013C40.6149 12.3113 40.516 12.8172 40.4373 13.3272C40.2959 14.2505 39.8376 14.7454 38.922 14.7564C36.5184 14.7866 34.1139 14.7665 31.6578 14.7665Z" fill="#D2760D"/>
</svg>
